<svg xmlns="http://www.w3.org/2000/svg" width="11.687" height="11.667" viewBox="0 0 11.687 11.667"><defs><style>.a{fill:rgba(46,46,46,0.9);}</style></defs><g transform="translate(-9.744 -2.566)"><path class="a" d="M20.807,3.17a2.18,2.18,0,0,0-3.012,0l-7.143,7.143a.532.532,0,0,0-.14.247L9.76,13.571a.533.533,0,0,0,.516.662.518.518,0,0,0,.129-.016l3.012-.753a.527.527,0,0,0,.247-.14l7.143-7.143a2.128,2.128,0,0,0,0-3.011Zm-7.791,9.3-2.008.5.5-2.008,5.909-5.909,1.506,1.506Zm7.038-7.039-.376.376L18.172,4.3l.376-.376a1.091,1.091,0,0,1,1.506,0,1.065,1.065,0,0,1,0,1.506Z"/></g></svg>