<svg id="A_-_48_x2C__handshake_x2C__done_x2C__ok_x2C__business" xmlns="http://www.w3.org/2000/svg" width="60.541" height="33.125" viewBox="0 0 60.541 33.125">
  <g id="Group_7" data-name="Group 7">
    <path id="Path_262" data-name="Path 262" d="M113.275,160.353H97.764a.468.468,0,0,1-.233-.873c.231-.133.466-.266.7-.4,1.9-1.07,3.862-2.177,4.347-3.776a1.381,1.381,0,0,0-.068-1.194.83.83,0,0,0-.71-.291c-.933,0-2.332.793-3.837,2.176a4.1,4.1,0,0,1-2.415.882c-1.363.182-2.65.354-3.477,2.94a.468.468,0,0,1-.337.312l-.526.125V173.7l1.988,1.127h12.341a1.458,1.458,0,0,0,.04-2.916.468.468,0,0,1,.009-.936h2.8a1.458,1.458,0,0,0,.04-2.916.468.468,0,0,1,.009-.936h2.184a1.46,1.46,0,0,0,1.458-1.458,1.476,1.476,0,0,0-1.423-1.468.468.468,0,0,1,.013-.935h2.606a1.453,1.453,0,1,0,0-2.906Z" transform="translate(-84.442 -151.83)" fill="#8aa1fb"/>
    <path id="Path_263" data-name="Path 263" d="M60.514,219.062a.62.62,0,0,0,.615-.624.611.611,0,0,0-.615-.605.6.6,0,0,0-.61.605A.618.618,0,0,0,60.514,219.062Z" transform="translate(-57.6 -206.713)" fill="#8aa1fb"/>
    <path id="Path_264" data-name="Path 264" d="M444.116,285.41a.616.616,0,0,0-.616.615.615.615,0,0,0,1.23,0A.616.616,0,0,0,444.116,285.41Z" transform="translate(-386.488 -264.653)" fill="#8aa1fb"/>
    <path id="Path_265" data-name="Path 265" d="M43.752,212.947h5.833V198.286H43.752Zm2.914-12.809a1.55,1.55,0,1,1-1.546,1.541A1.547,1.547,0,0,1,46.666,200.138Z" transform="translate(-43.752 -189.954)" fill="#8aa1fb"/>
    <path id="Path_266" data-name="Path 266" d="M278.514,223.459c-.825-2.582-2.111-2.753-3.471-2.935a4.089,4.089,0,0,1-2.421-.887c-1.506-1.379-2.9-2.171-3.837-2.171a.827.827,0,0,0-.708.289,1.388,1.388,0,0,0-.066,1.2c.485,1.606,2.471,2.72,4.392,3.8.219.123.438.245.652.368a.468.468,0,0,1-.232.874H257.313a1.46,1.46,0,0,0-1.458,1.458,1.477,1.477,0,0,0,1.458,1.458h2.606a.468.468,0,0,1,.013.935,1.458,1.458,0,0,0,.035,2.916h2.184a.468.468,0,0,1,.013.935,1.458,1.458,0,0,0,.035,2.916H265a.468.468,0,0,1,.013.935,1.458,1.458,0,0,0,.035,2.916h12.346l1.988-1.127V223.9l-.531-.125A.468.468,0,0,1,278.514,223.459Z" transform="translate(-225.605 -206.399)" fill="#8aa1fb"/>
    <path id="Path_267" data-name="Path 267" d="M427.38,261.9V276.56h5.829V261.9Zm2.915,5.518a1.55,1.55,0,1,1,1.55-1.55A1.552,1.552,0,0,1,430.295,267.417Z" transform="translate(-372.667 -244.495)" fill="#8aa1fb"/>
    <path id="Path_268" data-name="Path 268" d="M128.71,323.9H127.6v-1.113a.468.468,0,0,0-.935,0V323.9h-1.109a.468.468,0,1,0,0,.935h1.109v1.1a.468.468,0,1,0,.935,0v-1.1h1.108a.468.468,0,1,0,0-.935Z" transform="translate(-113.49 -296.294)" fill="#93b81e"/>
    <path id="Path_269" data-name="Path 269" d="M171.7,345.054h-1.108v-1.113a.468.468,0,0,0-.936,0v1.113h-1.109a.468.468,0,1,0,0,.936h1.109v1.1a.468.468,0,0,0,.936,0v-1.1H171.7a.468.468,0,1,0,0-.936Z" transform="translate(-150.349 -314.435)" fill="#93b81e"/>
    <path id="Path_270" data-name="Path 270" d="M243.719,142.374h1.108v1.113a.468.468,0,1,0,.936,0v-1.113h1.1a.468.468,0,0,0,0-.936h-1.1v-1.1a.468.468,0,0,0-.936,0v1.1h-1.108a.468.468,0,1,0,0,.936Z" transform="translate(-214.799 -139.867)" fill="#93b81e"/>
    <path id="Path_271" data-name="Path 271" d="M286.675,163.477h1.114v1.1a.468.468,0,1,0,.935,0v-1.1h1.1a.468.468,0,1,0,0-.936h-1.1v-1.113a.468.468,0,1,0-.935,0v1.113h-1.114a.468.468,0,0,0,0,.936Z" transform="translate(-251.628 -157.953)" fill="#93b81e"/>
  </g>
</svg>
