<svg width="13" height="15" viewBox="0 0 13 15" fill="none" xmlns="http://www.w3.org/2000/svg">
<path d="M4.03653 4.43422C4.69728 4.43422 5.23292 3.89348 5.23292 3.22644C5.23292 2.55939 4.69728 2.01865 4.03653 2.01865C3.37578 2.01865 2.84013 2.55939 2.84013 3.22644C2.84013 3.89348 3.37578 4.43422 4.03653 4.43422Z" fill="black"/>
<path d="M2.08738 6.87249H5.98361C6.02135 6.87249 6.05755 6.85736 6.08423 6.83042C6.11092 6.80348 6.12591 6.76694 6.12591 6.72884V6.64189C6.12541 6.14577 5.92997 5.67011 5.58246 5.3193C5.23496 4.96848 4.76378 4.77118 4.27234 4.77068H3.79865C3.30721 4.77118 2.83603 4.96848 2.48853 5.3193C2.14102 5.67011 1.94558 6.14577 1.94508 6.64189V6.72884C1.94508 6.76694 1.96008 6.80348 1.98676 6.83042C2.01345 6.85736 2.04964 6.87249 2.08738 6.87249Z" fill="black"/>
<path d="M12.4994 14.622V0.378024C12.4994 0.277766 12.46 0.181614 12.3897 0.110721C12.3195 0.0398275 12.2243 0 12.1249 0H0.374458C0.275146 0 0.1799 0.0398275 0.109676 0.110721C0.0394514 0.181614 0 0.277766 0 0.378024V14.622C0 14.7222 0.0394514 14.8184 0.109676 14.8893C0.1799 14.9602 0.275146 15 0.374458 15H12.1249C12.2243 15 12.3195 14.9602 12.3897 14.8893C12.46 14.8184 12.4994 14.7222 12.4994 14.622ZM11.7505 14.244H0.748916V0.756048H11.7505V14.244Z" fill="black"/>
<path d="M10.8656 3.47215H6.88701V4.2282H10.8656V3.47215Z" fill="black"/>
<path d="M10.8656 5.7403H6.88701V6.49635H10.8656V5.7403Z" fill="black"/>
<path d="M10.8657 9.14253H1.83189V9.89858H10.8657V9.14253Z" fill="black"/>
<path d="M10.8657 11.4107H1.83189V12.1667H10.8657V11.4107Z" fill="black"/>
</svg>
