<svg xmlns="http://www.w3.org/2000/svg" width="13.763" height="16.508" viewBox="0 0 13.763 16.508">
  <g id="soft-skill-icon" transform="translate(0)">
    <path id="Path_494" data-name="Path 494" d="M327.613-980.948a1.653,1.653,0,0,0-1.311,2.008,1.683,1.683,0,0,0,.64.948,1.988,1.988,0,0,0,.531.254,1.276,1.276,0,0,0,.438.037,1.178,1.178,0,0,0,.453-.045,1.653,1.653,0,0,0,1.172-1.312,2.119,2.119,0,0,0-.034-.7A1.664,1.664,0,0,0,327.613-980.948Zm.522.655a1.017,1.017,0,0,1,.734.728.991.991,0,0,1-.662,1.166.963.963,0,0,1-1-.249.93.93,0,0,1-.293-.711.952.952,0,0,1,.551-.856,1.133,1.133,0,0,1,.222-.083A1.262,1.262,0,0,1,328.135-980.293Z" transform="translate(-320.771 980.974)"/>
    <path id="Path_495" data-name="Path 495" d="M621.471-864.044a.4.4,0,0,0-.12.088c-.072.1-1.307,2.24-1.329,2.3a.412.412,0,0,0,.172.472l.083.051h2.766l.076-.042a.426.426,0,0,0,.2-.28.275.275,0,0,0-.012-.19c-.035-.108-1.28-2.259-1.349-2.333A.435.435,0,0,0,621.471-864.044Zm.6,1.555c.224.384.406.7.406.7s-.369.005-.819.005-.815-.007-.812-.013c.012-.029.812-1.4.815-1.4S621.85-862.874,622.072-862.49Z" transform="translate(-609.569 866.058)"/>
    <path id="Path_496" data-name="Path 496" d="M2.359-827.9c-.091.042-1.6,1.541-1.647,1.637a.405.405,0,0,0-.005.337c.045.1,1.543,1.6,1.651,1.649a.432.432,0,0,0,.342,0,21.251,21.251,0,0,0,1.642-1.639.423.423,0,0,0,.007-.355c-.045-.1-1.565-1.6-1.656-1.634A.537.537,0,0,0,2.359-827.9Zm.719,1.267.539.539-.544.542-.542.544-.549-.547-.547-.548.544-.534c.3-.295.547-.534.553-.536S2.782-826.929,3.078-826.633Z" transform="translate(-0.672 830.507)"/>
    <path id="Path_497" data-name="Path 497" d="M308.183-707.639a1.893,1.893,0,0,0-1.583,1.9,1.889,1.889,0,0,0,2.02,1.922,1.934,1.934,0,0,0,1.29-.527,1.975,1.975,0,0,0,.232-2.525,1.914,1.914,0,0,0-1.068-.741,1.566,1.566,0,0,0-.463-.051A2.348,2.348,0,0,0,308.183-707.639Zm.8.694a1.791,1.791,0,0,1,.243.108,1.7,1.7,0,0,1,.425.424,1.426,1.426,0,0,1,.168.527,1.251,1.251,0,0,1-1.287,1.422,1.223,1.223,0,0,1-1.225-.893,1.1,1.1,0,0,1-.039-.4.983.983,0,0,1,.045-.4,1.213,1.213,0,0,1,.61-.714,1.147,1.147,0,0,1,.659-.136A.945.945,0,0,1,308.987-706.945Z" transform="translate(-301.446 712.263)"/>
    <path id="Path_498" data-name="Path 498" d="M179.692-503.576a.9.9,0,0,0-.684.709,1.79,1.79,0,0,0,.034.736,2.157,2.157,0,0,0,.975,1.139,1.5,1.5,0,0,1,.719,1.373,4.858,4.858,0,0,1-.238,1.395,5.834,5.834,0,0,1-.416.952c-.283.571-.313.664-.315.965a.89.89,0,0,0,.04.335,1.321,1.321,0,0,0,1.25.839,1.123,1.123,0,0,0,.74-.359,9.183,9.183,0,0,0,.7-.889c.307-.413.561-.751.568-.751s.1.116.2.256c.448.6.9,1.208.979,1.3a1.577,1.577,0,0,0,.187.18,1.087,1.087,0,0,0,1.235.14,1.156,1.156,0,0,0,.7-1.243,4.01,4.01,0,0,0-.389-.967,5.394,5.394,0,0,1-.595-1.5,2.332,2.332,0,0,1,.519-1.794c.054-.059.232-.221.4-.359a2.81,2.81,0,0,0,.792-.864,1.227,1.227,0,0,0,.111-.563.784.784,0,0,0-.239-.65,1.032,1.032,0,0,0-.6-.261,1.719,1.719,0,0,0-1.174.286c-.167.088-.381.19-.473.229a4.121,4.121,0,0,1-1.893.339,4.624,4.624,0,0,1-2.04-.676,2.475,2.475,0,0,0-.547-.268A1.188,1.188,0,0,0,179.692-503.576Zm.475.731c.074.039.214.116.312.173a4.807,4.807,0,0,0,4.427.374c.1-.042.33-.152.507-.243a1.573,1.573,0,0,1,.74-.264.635.635,0,0,1,.328.093c.054.045.054.049.054.184a.553.553,0,0,1-.113.384,3.655,3.655,0,0,1-.617.586,2.637,2.637,0,0,0-.63.66,2.948,2.948,0,0,0-.453,2.084,5.99,5.99,0,0,0,.645,1.617c.168.359.317.7.332.758a.457.457,0,0,1-.025.33.772.772,0,0,1-.318.276.434.434,0,0,1-.537-.094c-.049-.044-.27-.323-.488-.618l-.834-1.122-.433-.581-.14.19c-.945,1.28-1.257,1.7-1.364,1.853-.232.32-.413.45-.6.431a.825.825,0,0,1-.391-.2.45.45,0,0,1-.131-.472,5.684,5.684,0,0,1,.271-.6,5.832,5.832,0,0,0,.409-.952,5.314,5.314,0,0,0,.275-1.585,2.145,2.145,0,0,0-.519-1.509,2.807,2.807,0,0,0-.544-.465,2.138,2.138,0,0,1-.593-.576.908.908,0,0,1-.064-.652C179.748-502.951,179.926-502.971,180.167-502.845Z" transform="translate(-175.98 511.636)"/>
  </g>
</svg>
