<svg xmlns="http://www.w3.org/2000/svg" width="13.646" height="17.496" viewBox="0 0 13.646 17.496"><defs><style>.a{stroke:#000;stroke-width:0.5px;}</style></defs><g transform="translate(-441.75 -375.75)"><path class="a" d="M71.146,2.772,68.373,0H60.125V9.038A2.322,2.322,0,0,0,58.8,13.1V17h.547l.98-.98.98.98h.547V15.27h9.295ZM68.49.68l1.976,1.976H68.49ZM58.4,11.353a1.925,1.925,0,1,1,1.925,1.925A1.928,1.928,0,0,1,58.4,11.353Zm1.925,4.1L59.2,16.582v-3.2a2.317,2.317,0,0,0,2.257,0v3.2Zm1.527-.581V13.1a2.322,2.322,0,0,0-1.328-4.064V.4h7.569V3.054h2.656V14.872Z" transform="translate(384 376)"/><path d="M176,64h3.187v.4H176Z" transform="translate(269.917 314.125)"/><path d="M176,96h2.125v.4H176Z" transform="translate(269.917 283.187)"/><path d="M176,144h7.436v.4H176Z" transform="translate(269.917 236.78)"/><path d="M176,176h7.436v.4H176Z" transform="translate(269.917 205.843)"/><path d="M176,240h7.436v.4H176Z" transform="translate(269.917 143.967)"/><path d="M208,272h5.311v.4H208Z" transform="translate(238.979 113.029)"/><path d="M176,208h7.436v.4H176Z" transform="translate(269.917 174.904)"/><path d="M304,320h3.187v.4H304Z" transform="translate(146.166 66.623)"/><path d="M336,352h2.125v.4H336Z" transform="translate(115.229 35.685)"/><path d="M91.261,306.523A1.261,1.261,0,1,0,90,305.262,1.263,1.263,0,0,0,91.261,306.523Zm0-2.125a.863.863,0,1,1-.863.863A.864.864,0,0,1,91.261,304.4Z" transform="translate(353.063 82.092)"/></g></svg>