<svg xmlns="http://www.w3.org/2000/svg" width="14.584" height="17.492" viewBox="0 0 14.584 17.492"><g transform="translate(-853.001 -376)"><path d="M327.694-980.946a1.751,1.751,0,0,0-1.389,2.128,1.784,1.784,0,0,0,.678,1.005,2.108,2.108,0,0,0,.562.27,1.35,1.35,0,0,0,.464.039,1.248,1.248,0,0,0,.48-.048,1.752,1.752,0,0,0,1.242-1.391,2.245,2.245,0,0,0-.036-.746A1.763,1.763,0,0,0,327.694-980.946Zm.553.694a1.078,1.078,0,0,1,.778.771,1.051,1.051,0,0,1-.7,1.235,1.02,1.02,0,0,1-1.055-.264.986.986,0,0,1-.311-.753,1.009,1.009,0,0,1,.584-.907,1.2,1.2,0,0,1,.236-.088A1.339,1.339,0,0,1,328.247-980.252Z" transform="translate(532.557 1356.974)"/><path d="M621.559-864.042a.428.428,0,0,0-.127.093c-.077.109-1.385,2.374-1.408,2.44a.437.437,0,0,0,.182.5l.087.054h2.931l.08-.045a.452.452,0,0,0,.214-.3.292.292,0,0,0-.013-.2c-.037-.114-1.357-2.394-1.43-2.472A.461.461,0,0,0,621.559-864.042Zm.637,1.648c.237.407.43.743.43.746s-.391.005-.868.005-.864-.007-.86-.014c.012-.03.86-1.483.864-1.48S621.96-862.8,622.2-862.394Z" transform="translate(244.054 1242.176)"/><path d="M2.46-827.9c-.1.045-1.694,1.633-1.746,1.735a.43.43,0,0,0-.005.357c.048.105,1.635,1.69,1.749,1.748a.457.457,0,0,0,.362,0,22.512,22.512,0,0,0,1.74-1.737.448.448,0,0,0,.007-.377c-.048-.1-1.658-1.692-1.755-1.732A.569.569,0,0,0,2.46-827.9Zm.762,1.342.571.571-.577.575-.575.576-.582-.58-.58-.58.577-.566c.318-.312.58-.566.585-.568S2.908-826.87,3.222-826.555Z" transform="translate(852.328 1206.66)"/><path d="M308.278-707.638a2.006,2.006,0,0,0-1.678,2.017,2,2,0,0,0,2.14,2.037,2.049,2.049,0,0,0,1.367-.559,2.093,2.093,0,0,0,.246-2.676,2.029,2.029,0,0,0-1.132-.785,1.659,1.659,0,0,0-.491-.054A2.474,2.474,0,0,0,308.278-707.638Zm.851.735a1.893,1.893,0,0,1,.257.114,1.8,1.8,0,0,1,.45.45,1.511,1.511,0,0,1,.178.559,1.326,1.326,0,0,1-1.364,1.507,1.3,1.3,0,0,1-1.3-.946,1.164,1.164,0,0,1-.041-.419,1.041,1.041,0,0,1,.048-.423,1.286,1.286,0,0,1,.646-.757,1.215,1.215,0,0,1,.7-.145A1,1,0,0,1,309.129-706.9Z" transform="translate(551.861 1088.537)"/><path d="M179.734-503.575a.958.958,0,0,0-.725.752,1.9,1.9,0,0,0,.036.78,2.285,2.285,0,0,0,1.034,1.207,1.589,1.589,0,0,1,.762,1.455,5.148,5.148,0,0,1-.252,1.478,6.181,6.181,0,0,1-.441,1.008c-.3.605-.332.7-.334,1.023a.942.942,0,0,0,.043.355,1.4,1.4,0,0,0,1.324.889,1.189,1.189,0,0,0,.784-.38,9.722,9.722,0,0,0,.741-.942c.325-.437.594-.8.6-.8s.1.123.212.271c.475.641.957,1.28,1.037,1.375a1.67,1.67,0,0,0,.2.191,1.152,1.152,0,0,0,1.308.148,1.225,1.225,0,0,0,.737-1.317,4.251,4.251,0,0,0-.412-1.025,5.714,5.714,0,0,1-.63-1.589,2.471,2.471,0,0,1,.55-1.9c.057-.062.246-.234.419-.38a2.978,2.978,0,0,0,.839-.916,1.3,1.3,0,0,0,.118-.6.83.83,0,0,0-.253-.689,1.094,1.094,0,0,0-.641-.277,1.821,1.821,0,0,0-1.244.3c-.177.093-.4.2-.5.243a4.366,4.366,0,0,1-2.006.359,4.9,4.9,0,0,1-2.162-.716,2.622,2.622,0,0,0-.58-.284A1.259,1.259,0,0,0,179.734-503.575Zm.5.775c.079.041.227.123.33.184a5.094,5.094,0,0,0,4.691.4c.109-.045.35-.161.537-.257a1.667,1.667,0,0,1,.784-.28.673.673,0,0,1,.348.1c.057.048.057.052.057.195a.587.587,0,0,1-.12.407,3.875,3.875,0,0,1-.653.621,2.8,2.8,0,0,0-.668.7,3.124,3.124,0,0,0-.48,2.208,6.347,6.347,0,0,0,.684,1.714c.178.38.336.743.352.8a.484.484,0,0,1-.027.35.818.818,0,0,1-.337.293.46.46,0,0,1-.569-.1c-.052-.046-.286-.343-.518-.655l-.884-1.189-.459-.616-.148.2c-1,1.357-1.332,1.8-1.446,1.964-.246.339-.437.477-.632.457a.875.875,0,0,1-.414-.211.477.477,0,0,1-.139-.5,6.017,6.017,0,0,1,.287-.641,6.183,6.183,0,0,0,.434-1.009,5.631,5.631,0,0,0,.291-1.68,2.273,2.273,0,0,0-.55-1.6,2.971,2.971,0,0,0-.577-.493,2.266,2.266,0,0,1-.628-.61.962.962,0,0,1-.068-.691C179.793-502.913,179.983-502.934,180.238-502.8Z" transform="translate(677.199 888.115)"/></g></svg>