<svg xmlns="http://www.w3.org/2000/svg" width="17.348" height="15.368" viewBox="0 0 17.348 15.368"><defs><style>.a{fill:#fff;}</style></defs><path class="a" d="M23.015,25.513a5.063,5.063,0,1,0-5.063-5.063A5.069,5.069,0,0,0,23.015,25.513Zm0-8.714a.3.3,0,1,1,0,.594,3.06,3.06,0,0,0-3.056,3.056.3.3,0,0,1-.6,0A3.655,3.655,0,0,1,23.015,16.8Zm2.23,1.128a.3.3,0,0,1-.24.12.293.293,0,0,1-.176-.058,3.112,3.112,0,0,0-.6-.345.3.3,0,1,1,.238-.544,3.68,3.68,0,0,1,.714.412A.3.3,0,0,1,25.245,17.927Z" transform="translate(-14.341 -15.387)"/><path class="a" d="M27.539,28.633H17.214a3.513,3.513,0,0,0-2.483,1.03A4.254,4.254,0,0,0,13.7,32.447a.3.3,0,0,0,.3.3H30.753a.3.3,0,0,0,.3-.3A3.768,3.768,0,0,0,27.539,28.633Z" transform="translate(-13.703 -17.377)"/></svg>