<svg xmlns="http://www.w3.org/2000/svg" width="19.75" height="19.739" viewBox="0 0 19.75 19.739"><defs><style>.a{fill:#fff;}</style></defs><path class="a" d="M113.593,219.454v.353a.353.353,0,1,1-.705,0v-.353h-3.131c-.015,0-.028,0-.043,0v2.12h7.053v-2.12c-.014,0-.028,0-.043,0Z" transform="translate(-105.482 -210.991)"/><path class="a" d="M100.571,148.14a.4.4,0,0,0,.4.4h6.968a.4.4,0,0,0,.4-.4v-1.721h-7.758Z" transform="translate(-96.692 -140.777)"/><rect class="a" width="3.527" height="0.705" transform="translate(5.995 4.232)"/><path class="a" d="M42.92,36.705a6.348,6.348,0,1,0,6.348,6.348A6.348,6.348,0,0,0,42.92,36.705Zm4.232,6.755v2.414a.706.706,0,0,1-.705.705H39.393a.706.706,0,0,1-.705-.705V43.46a1.1,1.1,0,0,1-.353-.8V40.937a.706.706,0,0,1,.705-.705h1.411v-.705a.706.706,0,0,1,.705-.705h3.527a.706.706,0,0,1,.705.705v.705H46.8a.706.706,0,0,1,.705.705v1.721A1.1,1.1,0,0,1,47.152,43.46Z" transform="translate(-35.161 -35.294)"/><path class="a" d="M15.517,7.891A7.758,7.758,0,1,0,7.758,15.65,7.758,7.758,0,0,0,15.517,7.891ZM7.758,14.945a7.053,7.053,0,1,1,7.053-7.053A7.053,7.053,0,0,1,7.758,14.945Z" transform="translate(0 -0.133)"/><path class="a" d="M342.063,340.7l-5-5a8.533,8.533,0,0,1-1.5,1.5l5,5a1.086,1.086,0,0,0,1.5,0A1.06,1.06,0,0,0,342.063,340.7Zm-.5,1a.358.358,0,1,1,.1-.25A.372.372,0,0,1,341.565,341.7Z" transform="translate(-322.624 -322.76)"/></svg>