<svg xmlns="http://www.w3.org/2000/svg" width="23.5" height="18.83" viewBox="0 0 23.852 19.179"><defs><style>.a,.b{fill:rgba(255,255,255,0.9);}.b{stroke:rgba(255,255,255,0.9);}</style></defs><g transform="translate(-21.002 -315.675)"><path class="a" d="M15727.644,9366.78h-1.89l2.193-2.208,1.044.983A1.364,1.364,0,0,1,15727.644,9366.78Zm-4.319,0h-12.968a1.356,1.356,0,0,1-1.354-1.354v-7.349a4.2,4.2,0,0,0,.379.422,3.917,3.917,0,0,0,2.736,1.09h5.387v1.051a.812.812,0,0,0,.809.813h1.375a.812.812,0,0,0,.809-.813v-1.051h2.243l4.28,3.76-3.694,3.432Zm5.674-3.11h0l-.918-.838.92-.49v1.329Zm-.955-1.905h0l-2.352-2.176h.192a3.6,3.6,0,0,0,1.429-.26,4.412,4.412,0,0,0,1.308-.83,4.284,4.284,0,0,0,.379-.422v2.755l-.954.933Zm-8.355-.99h-1.375a.133.133,0,0,1-.13-.135v-2.784a.132.132,0,0,1,.13-.13h1.375a.132.132,0,0,1,.13.13v2.784A.133.133,0,0,1,15719.688,9360.774Zm-2.184-1.863h-5.387a3.253,3.253,0,0,1-2.267-.9,2.969,2.969,0,0,1-.849-1.473v-3.463a1.358,1.358,0,0,1,1.354-1.358h17.287a1.358,1.358,0,0,1,1.354,1.358v3.459a2.994,2.994,0,0,1-.849,1.477,3.253,3.253,0,0,1-2.267.9h-.926l-1.033-.956-.977.956h-2.451v-1.055a.81.81,0,0,0-.809-.81h-1.375a.81.81,0,0,0-.809.81v1.055Zm-.877-7.874h-1.153v-.679a1.351,1.351,0,0,1,.4-.96,1.369,1.369,0,0,1,.963-.4h4.34a1.355,1.355,0,0,1,1.354,1.358v.678h-1.153v-.679a.2.2,0,0,0-.06-.143.2.2,0,0,0-.142-.062h-4.34a.194.194,0,0,0-.146.063.18.18,0,0,0-.06.143v.679Z" transform="translate(-15688 -9033.324)"/><path class="b" d="M4.5,4.5,0,9,4.5,4.5,0,0,4.5,4.5,9,0,4.5,4.5,9,9Z" transform="translate(35.5 325.5)"/></g></svg>