<svg xmlns="http://www.w3.org/2000/svg" width="20" height="17.78" viewBox="0 0 20 17.781"><defs><style>.a{fill:#fff;}</style></defs><path class="a" d="M20,15.164v3.462a3,3,0,0,1-.851,1.475,3.252,3.252,0,0,1-2.265.9H11.5V19.947a.812.812,0,0,0-.81-.81H9.312a.812.812,0,0,0-.81.81V21H3.117a3.252,3.252,0,0,1-2.266-.9A3,3,0,0,1,0,18.626V15.164a1.362,1.362,0,0,1,1.357-1.357H18.643A1.361,1.361,0,0,1,20,15.164Zm-9.312,7.7a.132.132,0,0,0,.131-.131V19.947a.132.132,0,0,0-.131-.131H9.312a.133.133,0,0,0-.131.131v2.787a.133.133,0,0,0,.131.131Zm8.931-2.273a3.928,3.928,0,0,1-2.736,1.088H11.5v1.054a.812.812,0,0,1-.81.809H9.312a.812.812,0,0,1-.81-.81V21.68H3.117A3.928,3.928,0,0,1,.381,20.591,3.851,3.851,0,0,1,0,20.167v7.349a1.361,1.361,0,0,0,1.357,1.357H18.643A1.361,1.361,0,0,0,20,27.516V20.167A3.84,3.84,0,0,1,19.619,20.591Zm-6.489-9.1a1.353,1.353,0,0,0-.96-.4H7.831a1.357,1.357,0,0,0-1.357,1.357v.679H7.627v-.679a.2.2,0,0,1,.2-.2H12.17a.2.2,0,0,1,.2.2v.679h1.153v-.679A1.354,1.354,0,0,0,13.13,11.49Z" transform="translate(0 -11.092)"/></svg>