<svg xmlns="http://www.w3.org/2000/svg" width="23.88" height="17.78" viewBox="0 0 23.878 17.782"><defs><style>.a{fill:#fff;}</style></defs><g transform="translate(-57.001 -300.674)"><path class="a" d="M15727.645,9366.78h-17.289a1.356,1.356,0,0,1-1.354-1.354v-7.349a4.33,4.33,0,0,0,.38.422,3.917,3.917,0,0,0,2.736,1.09h5.387v1.055a.811.811,0,0,0,.81.81h1.374a.811.811,0,0,0,.81-.81v-1.055h5.386a3.919,3.919,0,0,0,2.737-1.09,4.284,4.284,0,0,0,.379-.422v1.817l-3.084,2.873-3.171-2.779-1.545,2.354,4.716,3.763,3.084-2.8v2.123A1.356,1.356,0,0,1,15727.645,9366.78Zm-7.957-6.007h-1.374a.134.134,0,0,1-.135-.13v-2.788a.134.134,0,0,1,.135-.13h1.374a.13.13,0,0,1,.13.13v2.788A.13.13,0,0,1,15719.688,9360.773Zm-2.184-1.862h-5.387a3.253,3.253,0,0,1-2.267-.9,2.984,2.984,0,0,1-.85-1.474v-3.463a1.358,1.358,0,0,1,1.354-1.358h17.289a1.358,1.358,0,0,1,1.354,1.358v3.459a3.026,3.026,0,0,1-.85,1.478,3.25,3.25,0,0,1-2.267.9h-5.386v-1.055a.811.811,0,0,0-.81-.81h-1.374a.811.811,0,0,0-.81.81v1.055Zm-.877-7.874h-1.153v-.68a1.351,1.351,0,0,1,.395-.96,1.37,1.37,0,0,1,.964-.4h4.336a1.37,1.37,0,0,1,.964.4,1.347,1.347,0,0,1,.395.96v.679h-1.153v-.68a.206.206,0,0,0-.059-.143.2.2,0,0,0-.146-.059h-4.336a.188.188,0,0,0-.146.059.2.2,0,0,0-.06.143v.68Z" transform="translate(-15652 -9048.324)"/><path class="a" d="M33.269,14.43l-.76-.84-6.3,5.731L23.3,16.995l-.709.891,3.66,2.922Z" transform="translate(47.61 295.975)"/></g></svg>