<svg xmlns="http://www.w3.org/2000/svg" width="36" height="36" viewBox="0 0 36 36"><defs><style>.a{fill:#e8e7ff;}.b{fill:#a4c639;}.c{fill:none;stroke:#a4c639;stroke-linecap:round;stroke-linejoin:round;stroke-width:3px;}.d{fill:#fff;}</style></defs><g transform="translate(-305 -707)"><circle class="a" cx="18" cy="18" r="18" transform="translate(305 707)"/><g transform="translate(313.346 715.408)"><path class="b" d="M-5029.988,2215.87h0a1.373,1.373,0,0,1,1.373,1.373v5.888a1.373,1.373,0,0,1-1.373,1.372h0a1.372,1.372,0,0,1-1.373-1.372v-5.888A1.372,1.372,0,0,1-5029.988,2215.87Z" transform="translate(5036.708 -2202.657)"/><path class="b" d="M-5049.709,2142.42c0,.052-.009.1-.009.158v8.921a1.714,1.714,0,0,0,1.7,1.732h9.072a1.714,1.714,0,0,0,1.7-1.732v-8.921c0-.053,0-.106-.007-.158Z" transform="translate(5053.296 -2136.286)"/><path class="b" d="M-4965.748,2215.87h0a1.373,1.373,0,0,1,1.373,1.373v5.888a1.372,1.372,0,0,1-1.373,1.372h0a1.372,1.372,0,0,1-1.373-1.372v-5.888A1.373,1.373,0,0,1-4965.748,2215.87Z" transform="translate(4978.659 -2202.657)"/><path class="b" d="M-5085.469,2150.66h0a1.372,1.372,0,0,1,1.373,1.372v5.888a1.372,1.372,0,0,1-1.373,1.373h0a1.373,1.373,0,0,1-1.373-1.373v-5.888A1.372,1.372,0,0,1-5085.469,2150.66Z" transform="translate(5086.842 -2143.732)"/><path class="b" d="M-4910.269,2150.66h0a1.372,1.372,0,0,1,1.373,1.372v5.888a1.373,1.373,0,0,1-1.373,1.373h0a1.373,1.373,0,0,1-1.373-1.373v-5.888A1.372,1.372,0,0,1-4910.269,2150.66Z" transform="translate(4928.527 -2143.732)"/><path class="b" d="M-5049.22,2086.811c.039-2.74,2.43-4.987,5.5-5.283h1.38c3.07.3,5.461,2.543,5.5,5.283Z" transform="translate(5052.846 -2081.263)"/><path class="c" d="M-5044.27,2078.78l1.448,2.508" transform="translate(5048.373 -2078.78)"/><path class="c" d="M-4939.3,2078.78l-1.448,2.508" transform="translate(4954.833 -2078.78)"/><path class="d" d="M-5017.445,2104.339a.7.7,0,0,1-.708.7.7.7,0,0,1-.712-.692v0a.7.7,0,0,1,.708-.7.7.7,0,0,1,.712.692Z" transform="translate(5025.417 -2101.248)"/><path class="d" d="M-4962.445,2104.339a.7.7,0,0,1-.708.7.7.7,0,0,1-.712-.692v0a.7.7,0,0,1,.708-.7.7.7,0,0,1,.712.692Z" transform="translate(4975.718 -2101.248)"/></g></g></svg>