<svg xmlns="http://www.w3.org/2000/svg" width="36" height="36" viewBox="0 0 36 36"><defs><style>.a{fill:#e8e7ff;}.b{fill:#fff;}.c{fill:#a6a385;}.d{fill:#499d4a;}.e{fill:#58aa50;}</style></defs><g transform="translate(-886 -522)"><circle class="a" cx="18" cy="18" r="18" transform="translate(886 522)"/><g transform="translate(898.164 526.943)"><g transform="translate(0 0)"><path class="b" d="M41,44.756l-.7-.233s.078-3.536-1.185-3.788c-.835-.971.136-41.555,3.167-.136a2.434,2.434,0,0,0-1.224,1.418A13.461,13.461,0,0,0,41,44.756Z" transform="translate(-34.571 -18.743)"/><path class="c" d="M41,44.756l-.7-.233s.078-3.536-1.185-3.788c-.835-.971.136-41.555,3.167-.136a2.434,2.434,0,0,0-1.224,1.418A13.461,13.461,0,0,0,41,44.756Z" transform="translate(-34.571 -18.743)"/><path class="b" d="M47.469,28.036a12.267,12.267,0,0,0,4.643-12.278c-1.36-6.023-4.6-8-4.954-8.762A8.506,8.506,0,0,1,46.4,5.5l.253,16.766c.019.039-.505,5.148.816,5.77" transform="translate(-40.674 -5.442)"/><path class="d" d="M47.469,28.036a12.267,12.267,0,0,0,4.643-12.278c-1.36-6.023-4.6-8-4.954-8.762A8.506,8.506,0,0,1,46.4,5.5l.253,16.766c.019.039-.505,5.148.816,5.77" transform="translate(-40.674 -5.442)"/><path class="b" d="M22.3,28.027S16.612,24.142,16.943,17.3A14.516,14.516,0,0,1,22.052,6.482,1.563,1.563,0,0,0,22.635,5.2c.35.758.291,11.365.33,12.628.155,4.8-.272,9.286-.661,10.2Z" transform="translate(-16.929 -5.2)"/><path class="e" d="M22.3,28.027S16.612,24.142,16.943,17.3A14.516,14.516,0,0,1,22.052,6.482,1.563,1.563,0,0,0,22.635,5.2c.35.758.291,11.365.33,12.628.155,4.8-.272,9.286-.661,10.2Z" transform="translate(-16.929 -5.2)"/></g></g></g></svg>