<svg xmlns="http://www.w3.org/2000/svg" width="36" height="36" viewBox="0 0 36 36"><defs><style>.a{fill:#e8e7ff;}.b{fill:#3765af;}.c{fill:#fff;}</style></defs><g transform="translate(-305 -648)"><circle class="a" cx="18" cy="18" r="18" transform="translate(305 648)"/><path class="b" d="M36.418,26.2c-.583,3.707-1.717,4.79-3.726,7.281-2.009,2.11-4.9,5.633-8.991,5.437-3.707-.583-4.79-1.717-7.281-3.726-2.11-2.009-5.633-4.9-5.437-8.991.583-3.707,1.717-4.79,3.726-7.281,2.009-2.11,4.9-5.633,8.991-5.437,3.707.583,4.79,1.717,7.281,3.726C33.092,19.218,36.615,22.107,36.418,26.2Z" transform="translate(299.443 640.624)"/><circle class="c" cx="1.59" cy="1.59" r="1.59" transform="translate(321.555 665.216)"/><path class="c" d="M88.368,95.758a7.253,7.253,0,0,0-2.249-1.185c-.184-.063-.374-.127-.57-.177.032-.133.063-.266.089-.393.444-2.142.127-3.808-.817-4.353a2.163,2.163,0,0,0-1.825,0,7.222,7.222,0,0,0-2.148,1.356c-.146.127-.3.266-.444.406-.1-.1-.2-.184-.3-.272-1.635-1.451-3.238-2.015-4.182-1.47a2.158,2.158,0,0,0-.912,1.584,7.348,7.348,0,0,0,.1,2.541c.038.19.082.393.133.589-.228.063-.45.133-.659.209-1.933.672-3.086,1.7-3.086,2.75a2.258,2.258,0,0,0,.931,1.635,7.164,7.164,0,0,0,2.325,1.242c.158.051.317.1.482.152-.051.215-.1.425-.139.634-.38,2.009-.063,3.523.843,4.049a1.67,1.67,0,0,0,.849.209,3.047,3.047,0,0,0,1.027-.2,7.1,7.1,0,0,0,2.237-1.388c.12-.108.247-.222.368-.342.158.152.323.3.482.437a5.207,5.207,0,0,0,3.092,1.5,1.616,1.616,0,0,0,.83-.209,2.245,2.245,0,0,0,.95-1.622,7.386,7.386,0,0,0-.089-2.636c-.032-.158-.063-.317-.108-.475.114-.032.222-.07.33-.1,2.078-.684,3.365-1.793,3.365-2.883A2.141,2.141,0,0,0,88.368,95.758Zm-5.114-5.392a1.5,1.5,0,0,1,1.185-.057c.507.291.868,1.527.45,3.542-.025.114-.051.234-.082.349a17.694,17.694,0,0,0-2.383-.374,17.413,17.413,0,0,0-1.5-1.869c.133-.133.272-.253.406-.374A6.789,6.789,0,0,1,83.254,90.366Zm-.38,8.428c-.279.482-.564.944-.849,1.375-.526.038-1.071.057-1.628.057s-1.1-.019-1.609-.051c-.3-.444-.6-.906-.868-1.375s-.526-.957-.76-1.432c.228-.482.482-.963.754-1.432h0c.272-.475.564-.938.862-1.375.532-.038,1.071-.063,1.616-.063s1.09.019,1.622.063c.291.437.583.893.855,1.369s.539.963.767,1.426C83.406,97.83,83.153,98.312,82.874,98.793Zm1.172-.564a15.268,15.268,0,0,1,.6,1.565,15.052,15.052,0,0,1-1.66.285c.184-.291.368-.6.545-.906S83.888,98.54,84.046,98.229Zm-3.624,4.017a15.867,15.867,0,0,1-1.071-1.28c.336.013.684.019,1.039.019s.722-.006,1.077-.025C81.119,101.429,80.77,101.86,80.422,102.247Zm-2.6-2.161a14.451,14.451,0,0,1-1.635-.266,16.376,16.376,0,0,1,.577-1.565c.158.3.329.615.507.919S77.621,99.794,77.817,100.086Zm-.558-4.537c-.177.3-.342.615-.507.919a15.8,15.8,0,0,1-.564-1.54c.507-.114,1.052-.209,1.616-.279C77.615,94.947,77.431,95.245,77.26,95.549ZM80.4,92.5c.349.38.7.8,1.046,1.261-.349-.019-.7-.025-1.058-.025s-.7.006-1.039.025A15.385,15.385,0,0,1,80.4,92.5Zm3.124,3.042c-.177-.3-.355-.6-.539-.887a15.407,15.407,0,0,1,1.622.285,14.816,14.816,0,0,1-.57,1.533Q83.8,96.008,83.527,95.543Zm-7.667-1.895a6.376,6.376,0,0,1-.1-2.262,1.473,1.473,0,0,1,.545-1.058c.507-.291,1.755.013,3.295,1.381q.133.114.266.247a17.625,17.625,0,0,0-1.508,1.869,18.864,18.864,0,0,0-2.376.368C75.936,94.009,75.9,93.832,75.859,93.648ZM75,99.5c-1.882-.64-2.737-1.571-2.737-2.161,0-.564.8-1.413,2.579-2.034q.295-.1.608-.19a17.555,17.555,0,0,0,.868,2.249,17.915,17.915,0,0,0-.874,2.275C75.289,99.6,75.143,99.547,75,99.5Zm1.793,5a.933.933,0,0,1-.469-.108c-.488-.279-.824-1.394-.475-3.244.038-.19.082-.387.127-.589a17.943,17.943,0,0,0,2.4.349A19.019,19.019,0,0,0,79.9,102.8c-.114.108-.228.215-.336.31A4.806,4.806,0,0,1,76.791,104.5Zm8.161-3.548c.387,1.952.013,3.156-.494,3.447-.488.285-1.622.019-3.048-1.21-.146-.127-.3-.266-.45-.406a16.728,16.728,0,0,0,1.489-1.895,17.461,17.461,0,0,0,2.408-.374Q84.9,100.745,84.952,100.954Zm.729-1.451c-.1.032-.2.063-.3.1a17.314,17.314,0,0,0-.9-2.249,18.407,18.407,0,0,0,.868-2.224c.184.051.361.108.532.165a6.526,6.526,0,0,1,2.009,1.052,1.469,1.469,0,0,1,.64,1C88.526,97.931,87.633,98.856,85.681,99.5Z" transform="translate(242.756 569.464)"/></g></svg>