<svg xmlns="http://www.w3.org/2000/svg" width="36" height="36" viewBox="0 0 36 36"><defs><style>.a{fill:#e8e7ff;}.b{fill:#347ab4;}.c{fill:#ffca1d;}.d{fill:#fff;}</style></defs><g transform="translate(-886 -581)"><circle class="a" cx="18" cy="18" r="18" transform="translate(886 581)"/><g transform="translate(894.002 589)"><path class="b" d="M35.944,36.693H40.4a2.246,2.246,0,0,0,2.227-2.265v-4.25A2.49,2.49,0,0,0,40.4,27.86a13.747,13.747,0,0,0-4.454,0c-1.885.334-2.227,1.03-2.227,2.319v.91h4.458v1.355H32.045a2.784,2.784,0,0,0-2.786,2.26,8.353,8.353,0,0,0,0,4.529c.317,1.318,1.072,2.26,2.369,2.26h1.531V39.462a2.832,2.832,0,0,1,2.786-2.769Z" transform="translate(-28.946 -27.68)"/><path class="c" d="M173.078,158.317c-.321-1.289-.93-2.26-2.227-2.26h-1.672v1.977a2.86,2.86,0,0,1-2.786,2.828h-4.454a2.273,2.273,0,0,0-2.227,2.265v4.246c0,1.209,1.051,1.918,2.227,2.265a7.5,7.5,0,0,0,4.454,0c1.122-.325,2.227-.98,2.227-2.265v-.89h-4.45v-1.374h6.681c1.3,0,1.777-.905,2.227-2.26a7.627,7.627,0,0,0,0-4.529Z" transform="translate(-154.168 -150.614)"/><path class="d" d="M169.244,52.8a.815.815,0,1,1,.8-.813A.809.809,0,0,1,169.244,52.8Z" transform="translate(-162.526 -50.175)"/><path class="d" d="M296.737,423.282a.815.815,0,1,1,.8-.812A.809.809,0,0,1,296.737,423.282Z" transform="translate(-284.612 -404.949)"/></g></g></svg>