<svg xmlns="http://www.w3.org/2000/svg" width="36" height="36" viewBox="0 0 36 36"><defs><style>.a{fill:#e8e7ff;}.b{fill:#f05138;}</style></defs><g transform="translate(-886 -699)"><circle class="a" cx="18" cy="18" r="18" transform="translate(886 699)"/><g transform="translate(867.818 653.646)"><g transform="translate(26 54.211)"><g transform="translate(0 0)"><path class="b" d="M38.551,54.211C47.5,60.2,44.6,66.784,44.6,66.784s2.543,2.822,1.521,5.293a3.7,3.7,0,0,0-2.806-1.727c-1.693,0-2.694,1.727-6.112,1.727A13.511,13.511,0,0,1,26,65.832c6.849,4.441,11.529,1.294,11.529,1.294-3.093-1.758-9.652-10.18-9.652-10.18,5.718,4.787,8.186,6.044,8.186,6.044-1.484-1.194-5.619-7.048-5.619-7.048a96.469,96.469,0,0,0,9.886,7.88c1.886-5.071-1.779-9.611-1.779-9.611Z" transform="translate(-26 -54.211)"/></g></g></g></g></svg>