<svg id="iconfinder_phone_1608790" xmlns="http://www.w3.org/2000/svg" width="12.973" height="12.973" viewBox="0 0 12.973 12.973">
  <path id="iconfinder_phone_1608790-2" data-name="iconfinder_phone_1608790" d="M204.973,138.246a3.04,3.04,0,0,1-.092.65,3.659,3.659,0,0,1-.193.631,2.47,2.47,0,0,1-1.124.977,3.416,3.416,0,0,1-2.2.438,3.98,3.98,0,0,1-.53-.115q-.295-.083-.438-.134t-.511-.189q-.369-.138-.451-.166a8.344,8.344,0,0,1-1.612-.765,15.477,15.477,0,0,1-4.423-4.423,8.344,8.344,0,0,1-.765-1.612q-.028-.083-.166-.451t-.189-.511q-.051-.143-.134-.438a3.983,3.983,0,0,1-.115-.53,3.415,3.415,0,0,1,.438-2.2,2.47,2.47,0,0,1,.977-1.124,3.661,3.661,0,0,1,.631-.193,3.042,3.042,0,0,1,.65-.092.516.516,0,0,1,.193.028q.166.055.488.7.1.175.276.5t.322.585q.147.263.286.493.028.037.161.23a2.573,2.573,0,0,1,.2.327.6.6,0,0,1,.064.263.765.765,0,0,1-.263.461,4.492,4.492,0,0,1-.571.507,5.552,5.552,0,0,0-.571.488.7.7,0,0,0-.263.424.623.623,0,0,0,.046.207,2.01,2.01,0,0,0,.078.189q.032.065.129.221t.106.175a9.132,9.132,0,0,0,3.768,3.768q.018.009.175.106t.221.129a2.014,2.014,0,0,0,.189.078.623.623,0,0,0,.207.046.7.7,0,0,0,.424-.263,5.551,5.551,0,0,0,.488-.571,4.491,4.491,0,0,1,.507-.571.765.765,0,0,1,.461-.263.6.6,0,0,1,.263.064,2.575,2.575,0,0,1,.327.2q.193.134.23.161.23.138.493.286t.585.323q.322.175.5.276.645.322.7.488A.516.516,0,0,1,204.973,138.246Z" transform="translate(-192 -128)" fill="#1652a8"/>
</svg>
