<svg id="iconfinder_icon-email_211660" xmlns="http://www.w3.org/2000/svg" width="15.645" height="10.694" viewBox="0 0 15.645 10.694">
  <path id="Path_411" data-name="Path 411" d="M54.1,128.865c.413.242,6.145,3.722,6.359,3.847a1.7,1.7,0,0,0,1.538,0c.214-.125,5.946-3.6,6.359-3.847.154-.088.413-.246.469-.426.1-.317-.007-.439-.424-.439H54.056c-.416,0-.521.125-.424.439C53.688,128.622,53.947,128.777,54.1,128.865Z" transform="translate(-53.364 -128)" fill="#1652a8"/>
  <path id="Path_412" data-name="Path 412" d="M63.333,151.538c-.308.175-3.076,2.364-4.908,3.68l3.091,3.864c.075.084.109.184.068.234s-.143.021-.222-.059l-3.708-3.475c-.56.4-.955.677-1.023.718a1.709,1.709,0,0,1-1.542,0c-.071-.042-.463-.317-1.023-.718l-3.708,3.475c-.075.084-.177.109-.222.059s-.011-.15.064-.234l3.088-3.864c-1.831-1.316-4.63-3.5-4.938-3.68-.331-.188-.35.033-.35.2v8.563a1.061,1.061,0,0,0,.884.873H62.836a.987.987,0,0,0,.809-.873v-8.563C63.645,151.567,63.667,151.35,63.333,151.538Z" transform="translate(-48 -150.485)" fill="#1652a8"/>
</svg>
