<svg xmlns="http://www.w3.org/2000/svg" width="21.535" height="21.535" viewBox="0 0 21.535 21.535"><defs><style>.a{fill:#2e94e2;}</style></defs><g transform="translate(13.922 10.137)"><path d="M334.155,241a3.155,3.155,0,1,0,3.155,3.155A3.158,3.158,0,0,0,334.155,241Z" transform="translate(-331 -241)"/></g><g transform="translate(12.66 16.446)"><path d="M308.5,391a4.392,4.392,0,0,1-6.162,0A4.4,4.4,0,0,0,301,394.155v1.3a.631.631,0,0,0,.631.631h7.613a.631.631,0,0,0,.631-.631v-1.3A4.436,4.436,0,0,0,308.5,391Z" transform="translate(-301 -391)"/></g><g transform="translate(1.304)"><path d="M34.155,0A3.2,3.2,0,0,0,31,3.2a3.155,3.155,0,1,0,6.309,0A3.194,3.194,0,0,0,34.155,0Z" transform="translate(-31)"/></g><g transform="translate(0 6.351)"><path d="M7.539,151a4.392,4.392,0,0,1-6.162,0A4.436,4.436,0,0,0,0,154.155v1.262a.631.631,0,0,0,.631.631H8.244a.631.631,0,0,0,.631-.631v-1.262A4.4,4.4,0,0,0,7.539,151Z" transform="translate(0 -151)"/></g><g transform="translate(8.774 2.566)"><path class="a" d="M210.59,61a8.2,8.2,0,0,0-1.931.248c.011.128.039.252.039.383a4.406,4.406,0,0,1-.1.925,6.927,6.927,0,0,1,8.675,4.791,4.389,4.389,0,0,1,1.373.325A8.212,8.212,0,0,0,210.59,61Z" transform="translate(-208.596 -61)"/></g><g transform="translate(2.795 12.66)"><path class="a" d="M74.424,306.047A6.948,6.948,0,0,1,67.753,301h-1.3a8.21,8.21,0,0,0,7.973,6.309c.234,0,.466-.016.7-.035a5.592,5.592,0,0,1,.307-1.307A6.994,6.994,0,0,1,74.424,306.047Z" transform="translate(-66.451 -301)"/></g></svg>