<svg xmlns="http://www.w3.org/2000/svg" width="10.64" height="15.34" viewBox="0 0 10.64 15.34"><defs><style>.a{fill:#333;fill-rule:evenodd;}</style></defs><g transform="translate(-694.719 -377)"><path class="a" d="M12.878,11.5A2.876,2.876,0,1,0,10,8.622,2.879,2.879,0,0,0,12.878,11.5Zm0-5.273a2.4,2.4,0,1,1-2.4,2.4A2.4,2.4,0,0,1,12.878,6.225Z" transform="translate(687.161 374.009)"/><path class="a" d="M9.319,0A5.534,5.534,0,0,0,4,5.753c0,3.356,2.66,6.788,4.6,9.2a1.065,1.065,0,0,0,.7.386h.034a1.067,1.067,0,0,0,.7-.386c1.94-2.413,4.6-5.845,4.6-9.2A5.535,5.535,0,0,0,9.319,0Zm.052,14.325a.542.542,0,0,1-.06.047.465.465,0,0,0-.057-.064C7.63,12.287,4.887,8.875,4.887,5.753A4.63,4.63,0,0,1,9.319.959a4.63,4.63,0,0,1,4.434,4.795C13.753,8.875,11.01,12.287,9.371,14.325Z" transform="translate(690.719 377)"/></g></svg>