<svg xmlns="http://www.w3.org/2000/svg" width="16.92" height="14.041" viewBox="0 0 16.92 14.041"><defs><style>.a,.b{fill:none;stroke:#000;stroke-linecap:round;}.a{stroke-linejoin:round;}</style></defs><g transform="translate(-1022.5 -377.391)"><path class="a" d="M12.578,19.342V17.895A2.9,2.9,0,0,0,9.684,15H3.895A2.9,2.9,0,0,0,1,17.895v1.447" transform="translate(1022 371.589)"/><path class="b" d="M3.057,0A2.837,2.837,0,0,1,6.114,2.547,2.837,2.837,0,0,1,3.057,5.095,2.837,2.837,0,0,1,0,2.547,2.837,2.837,0,0,1,3.057,0Z" transform="translate(1025.865 378.305)"/><path class="a" d="M22.171,19.378V17.931A2.9,2.9,0,0,0,20,15.13" transform="translate(1016.749 371.554)"/><path class="a" d="M16,3.13a2.895,2.895,0,0,1,0,5.608" transform="translate(1017.854 374.869)"/></g></svg>