<svg xmlns="http://www.w3.org/2000/svg" width="20.7" height="16.482" viewBox="0 0 20.7 16.482"><defs><style>.a{fill:none;stroke:rgba(46,46,46,0.9);stroke-linecap:round;stroke-linejoin:round;stroke-miterlimit:10;stroke-width:0.7px;}</style></defs><g transform="translate(0.35 0.35)"><path class="a" d="M29.169,30.1H11.942a1.386,1.386,0,0,1-1.386-1.386V18.381a1.386,1.386,0,0,1,1.386-1.386H29.169a1.386,1.386,0,0,1,1.386,1.386V28.71A1.386,1.386,0,0,1,29.169,30.1Z" transform="translate(-10.556 -14.314)"/><line class="a" x2="19.875" transform="translate(0.065 6.628)"/><path class="a" d="M19.236,16.072V15.12a1.733,1.733,0,0,1,1.729-1.729H25.1a1.733,1.733,0,0,1,1.729,1.729v.952" transform="translate(-12.78 -13.391)"/></g></svg>