<svg xmlns="http://www.w3.org/2000/svg" width="16.19" height="20" viewBox="0 0 16.19 20"><defs><style>.a{fill:#263238;}</style></defs><g transform="translate(-29.478 -7.5)"><path class="a" d="M54.76,7.5H53.05a1.028,1.028,0,0,0-1.1.928v.255a.567.567,0,0,1-.6.513,1.215,1.215,0,0,0-.783.27.861.861,0,0,0-.324.658v.344h-3.2A1.148,1.148,0,0,0,45.81,11.5V26.463A1.148,1.148,0,0,0,47.041,27.5H60.769A1.148,1.148,0,0,0,62,26.463V11.5a1.148,1.148,0,0,0-1.231-1.037h-3.2v-.344a1.028,1.028,0,0,0-1.1-.929.67.67,0,0,1-.431-.15.475.475,0,0,1-.178-.363V8.428A1.028,1.028,0,0,0,54.76,7.5Zm2.813,3.726v-.344h3.2a.689.689,0,0,1,.739.622V26.463a.689.689,0,0,1-.739.622H47.041a.689.689,0,0,1-.739-.622V11.5a.689.689,0,0,1,.739-.622h3.2v.344a.863.863,0,0,0,.325.657,1.217,1.217,0,0,0,.782.27h5.131A1.027,1.027,0,0,0,57.573,11.226Zm-1.1-1.616a.569.569,0,0,1,.61.514v1.1a.568.568,0,0,1-.61.513H51.344a.568.568,0,0,1-.61-.513v-1.1a.568.568,0,0,1,.61-.514,1.027,1.027,0,0,0,1.1-.928V8.428a.568.568,0,0,1,.61-.513h1.71a.568.568,0,0,1,.61.513v.255a.86.86,0,0,0,.322.656,1.213,1.213,0,0,0,.779.272Z" transform="translate(-16.332 0)"/><path class="a" d="M63.834,73.489l-1.8,1.8-.811-.811a.247.247,0,0,0-.349.349l.985.985a.246.246,0,0,0,.349,0l1.97-1.97a.247.247,0,0,0-.349-.349Z" transform="translate(-29.852 -59.425)"/><path class="a" d="M105.76,83.666a.246.246,0,0,0,.246.246h8.316a.246.246,0,1,0,0-.492h-8.316A.246.246,0,0,0,105.76,83.666Z" transform="translate(-70.377 -68.442)"/><path class="a" d="M63.834,103.489l-1.8,1.8-.811-.811a.247.247,0,1,0-.349.349l.985.985a.246.246,0,0,0,.349,0l1.97-1.97a.247.247,0,0,0-.349-.349Z" transform="translate(-29.852 -86.47)"/><path class="a" d="M114.322,113.42h-8.316a.246.246,0,0,0,0,.492h8.316a.246.246,0,1,0,0-.492Z" transform="translate(-70.377 -95.488)"/><path class="a" d="M63.834,133.489l-1.8,1.8-.811-.811a.247.247,0,1,0-.349.349l.985.985a.246.246,0,0,0,.349,0l1.97-1.97a.247.247,0,0,0-.349-.349Z" transform="translate(-29.852 -113.515)"/><path class="a" d="M114.322,143.42h-8.316a.246.246,0,0,0,0,.492h8.316a.246.246,0,1,0,0-.492Z" transform="translate(-70.377 -122.533)"/><path class="a" d="M63.834,163.489l-1.8,1.8-.811-.811a.247.247,0,1,0-.349.349l.985.985a.246.246,0,0,0,.349,0l1.97-1.97a.247.247,0,0,0-.349-.349Z" transform="translate(-29.852 -140.56)"/><path class="a" d="M114.322,173.42h-8.316a.246.246,0,0,0,0,.492h8.316a.246.246,0,1,0,0-.492Z" transform="translate(-70.377 -149.578)"/></g></svg>