<svg xmlns="http://www.w3.org/2000/svg" width="14.88" height="20" viewBox="0 0 14.88 20"><defs><style>.a{fill:rgba(46,46,46,0.9);}</style></defs><g transform="translate(-37.252 -6.1)"><path class="a" d="M52.03,11.982a5.9,5.9,0,0,0-.189-.788A7.469,7.469,0,0,0,44.835,6.1h-.287a7.469,7.469,0,0,0-7.006,5.094,5.9,5.9,0,0,0-.189.788,6.436,6.436,0,0,0,.4,3.659c.016.033.033.074.057.131.394.87.976,1.879,1.542,2.855.484.845.984,1.715,1.345,2.453a.4.4,0,1,0,.714-.353c-.369-.771-.878-1.649-1.37-2.5-.55-.96-1.124-1.952-1.5-2.789l-.049-.1a5.6,5.6,0,0,1-.361-3.224,4.377,4.377,0,0,1,.156-.673A6.673,6.673,0,0,1,44.54,6.888h.279a6.683,6.683,0,0,1,6.259,4.553,4.377,4.377,0,0,1,.156.673,5.569,5.569,0,0,1-.361,3.216c-.008.025-.025.049-.033.074l-.016.033c-.386.837-.952,1.829-1.5,2.789-.492.853-.993,1.731-1.37,2.5a.4.4,0,0,0,.18.533.441.441,0,0,0,.172.041.409.409,0,0,0,.361-.221c.361-.747.861-1.616,1.345-2.453.558-.976,1.14-1.985,1.542-2.863l.049-.107A6.309,6.309,0,0,0,52.03,11.982Z"/><path class="a" d="M91.221,202.5H85.437a.681.681,0,0,0-.509.238.669.669,0,0,0-.139.541l.279,1.46a.653.653,0,0,0,.648.533h.443a2.676,2.676,0,0,0,4.348,0h.443a.666.666,0,0,0,.648-.533l.279-1.46a.685.685,0,0,0-.139-.541A.7.7,0,0,0,91.221,202.5Zm-.394,1.977h-.541a.4.4,0,0,0-.345.2,1.872,1.872,0,0,1-3.232,0,.4.4,0,0,0-.345-.2h-.541L85.6,203.3h5.447Z" transform="translate(-43.629 -180.288)"/><path class="a" d="M109.892,83.159a.4.4,0,0,0,.287.123.378.378,0,0,0,.271-.107l1.559-1.485a.4.4,0,0,0,.016-.558.409.409,0,0,0-.566-.016l-1.272,1.206-.476-.492a.4.4,0,1,0-.574.558Z" transform="translate(-65.885 -68.765)"/><path class="a" d="M78.7,50.446a.4.4,0,0,0-.041.517,4.288,4.288,0,0,0,.943.943.363.363,0,0,0,.484-.016c.016-.016.033-.025.049-.041.066-.066.131-.139.205-.205l.025-.025a3.731,3.731,0,0,0,.648.271v.345a.4.4,0,0,0,.336.394,4.288,4.288,0,0,0,.664.049,4.337,4.337,0,0,0,.656-.049.414.414,0,0,0,.336-.41V51.89a3.187,3.187,0,0,0,.648-.271l.008.008.221.221.008.008a.433.433,0,0,0,.2.115.424.424,0,0,0,.328-.066,4.119,4.119,0,0,0,.943-.943.4.4,0,0,0-.041-.517l-.131-.139a1.362,1.362,0,0,1-.107-.115,3.071,3.071,0,0,0,.271-.656h.328a.465.465,0,0,0,.148-.025A.4.4,0,0,0,86.1,49.2a3.663,3.663,0,0,0,.057-.673,3.855,3.855,0,0,0-.057-.673.4.4,0,0,0-.394-.336h-.353a3.121,3.121,0,0,0-.271-.64c.082-.082.164-.164.246-.238a.4.4,0,0,0,.049-.517,4.19,4.19,0,0,0-.952-.952.391.391,0,0,0-.517.049l-.205.205-.041.041a3.731,3.731,0,0,0-.648-.271v-.353a.4.4,0,0,0-.336-.394,4.4,4.4,0,0,0-1.313,0,.409.409,0,0,0-.336.418V45.2a3.7,3.7,0,0,0-.648.263l-.033-.033c-.074-.066-.139-.139-.205-.205a.4.4,0,0,0-.517-.049,4.031,4.031,0,0,0-.952.952.39.39,0,0,0,.049.517c.082.082.164.156.246.238a3.652,3.652,0,0,0-.271.64h-.353a.4.4,0,0,0-.394.328,3.691,3.691,0,0,0-.057.681,3.636,3.636,0,0,0,.057.664.4.4,0,0,0,.3.32c.033.008.09.008.123.016h.32a3.56,3.56,0,0,0,.271.656l-.1.1Zm-.025-1.7a1.715,1.715,0,0,1-.008-.205,1.855,1.855,0,0,1,.008-.213c.082,0,.156,0,.246.008a1.01,1.01,0,0,0,.164-.016.388.388,0,0,0,.287-.3,2.631,2.631,0,0,1,.394-.952.4.4,0,0,0,.008-.427.824.824,0,0,0-.131-.156l-.139-.139a2.511,2.511,0,0,1,.3-.3l.156.156a.459.459,0,0,0,.213.148.387.387,0,0,0,.353-.041,2.644,2.644,0,0,1,.96-.394.413.413,0,0,0,.3-.238.524.524,0,0,0,.033-.205v-.238a3.152,3.152,0,0,1,.394,0v.238a.521.521,0,0,0,.033.221.385.385,0,0,0,.3.238,2.644,2.644,0,0,1,.96.394.423.423,0,0,0,.345.049.537.537,0,0,0,.213-.139c.057-.057.107-.115.164-.164a2.511,2.511,0,0,1,.3.3c-.049.049-.09.09-.131.139a.65.65,0,0,0-.139.156.4.4,0,0,0,.008.427,2.5,2.5,0,0,1,.394.952.389.389,0,0,0,.287.3.411.411,0,0,0,.18.016c.074,0,.148-.008.23-.008a1.855,1.855,0,0,1,.008.213,1.648,1.648,0,0,1-.008.205h-.287a.521.521,0,0,0-.189.041.385.385,0,0,0-.221.279,2.725,2.725,0,0,1-.4.968.4.4,0,0,0-.008.435.666.666,0,0,0,.09.107c.057.057.123.115.18.18-.09.1-.189.2-.287.287l-.189-.189a1.039,1.039,0,0,0-.107-.09.4.4,0,0,0-.427.008,2.587,2.587,0,0,1-.96.394.391.391,0,0,0-.3.279.477.477,0,0,0-.016.18v.238a3.152,3.152,0,0,1-.394,0v-.254a.68.68,0,0,0-.016-.164.4.4,0,0,0-.3-.279,2.532,2.532,0,0,1-.96-.394.4.4,0,0,0-.427-.008.552.552,0,0,0-.115.09c-.057.066-.123.123-.18.18a3.161,3.161,0,0,1-.287-.287l.189-.189a.436.436,0,0,0,.082-.107.4.4,0,0,0-.016-.427,2.64,2.64,0,0,1-.4-.968.386.386,0,0,0-.263-.3.691.691,0,0,0-.148-.025Z" transform="translate(-37.314 -35.158)"/></g></svg>