<svg xmlns="http://www.w3.org/2000/svg" width="16" height="16" viewBox="0 0 16 16"><defs><style>.a{fill:rgba(46,46,46,0.9);fill-rule:evenodd;}</style></defs><g transform="translate(-4 -4)"><g transform="translate(-719 -479)"><path class="a" d="M739,491a8,8,0,1,0-8,8A8,8,0,0,0,739,491Zm-15,0a7,7,0,1,1,7,7A7,7,0,0,1,724,491Zm7.382-3.5v.691a1.14,1.14,0,0,1,.58.275,2.089,2.089,0,0,1,.43.638l-.586.384q-.266-.564-.692-.564a.583.583,0,0,0-.439.183.639.639,0,0,0-.174.458.618.618,0,0,0,.141.416,2.019,2.019,0,0,0,.559.385,5.352,5.352,0,0,1,.6.364,1.665,1.665,0,0,1,.357.33,1.623,1.623,0,0,1,.34,1.04,1.851,1.851,0,0,1-.307,1.057,1.48,1.48,0,0,1-.811.613v.73h-.526v-.708a1.511,1.511,0,0,1-.9-.476,2.441,2.441,0,0,1-.457-1.121l.661-.162a1.958,1.958,0,0,0,.331.765.761.761,0,0,0,1.1-.032.926.926,0,0,0,.22-.638.828.828,0,0,0-.184-.561,1.707,1.707,0,0,0-.275-.23,4.452,4.452,0,0,0-.464-.281,2.231,2.231,0,0,1-.767-.564,1.477,1.477,0,0,1-.291-.919,1.564,1.564,0,0,1,.069-.473,1.355,1.355,0,0,1,.2-.4,1.3,1.3,0,0,1,.323-.309,1.576,1.576,0,0,1,.436-.2V487.5Z"/></g></g></svg>