<svg xmlns="http://www.w3.org/2000/svg" width="13.646" height="17.496" viewBox="0 0 13.646 17.496"><defs><style>.a{stroke:#000;stroke-width:0.5px;}</style></defs><path class="a" d="M71.146,2.772,68.373,0H60.125V9.038A2.322,2.322,0,0,0,58.8,13.1V17h.547l.98-.98.98.98h.547V15.27h9.295ZM68.49.68l1.976,1.976H68.49ZM58.4,11.353a1.925,1.925,0,1,1,1.925,1.925A1.928,1.928,0,0,1,58.4,11.353Zm1.925,4.1L59.2,16.582v-3.2a2.317,2.317,0,0,0,2.257,0v3.2Zm1.527-.581V13.1a2.322,2.322,0,0,0-1.328-4.064V.4h7.569V3.054h2.656V14.872Z" transform="translate(-57.75 0.25)"/></svg>