<svg xmlns="http://www.w3.org/2000/svg" width="51.395" height="55" viewBox="0 0 51.395 55"><defs><style>.a{fill:#2ac769;}.b{fill:#007eff;}.c{fill:#fff;}</style></defs><g transform="translate(-325.225 -202.862)"><g transform="translate(325.225 202.862)"><path class="a" d="M6,1V45.906H41.551V8.1L34.454,1ZM35,4.194l3.355,3.355H35ZM7.871,44.035V2.871h25.26V9.42H39.68V44.035Z" transform="translate(-6 -1)"/><rect class="a" width="21.042" height="2.104" transform="translate(7.129 11.718)"/><rect class="a" width="21.042" height="2.104" transform="translate(7.129 16.979)"/><rect class="a" width="21.042" transform="translate(7.129 25.396)"/><rect class="a" width="21.042" height="2.102" transform="translate(7.129 34.865)"/><rect class="a" width="21.042" height="2.104" transform="translate(7.129 28.552)"/><rect class="a" width="21.042" height="2.104" transform="translate(7.128 23.292)"/></g><g transform="translate(341.069 212.956)"><path class="b" d="M6,1V45.906H41.551V8.1L34.454,1ZM35,4.194l3.355,3.355H35Z" transform="translate(-6 -1)"/><rect class="c" width="21.042" height="2.104" transform="translate(7.129 11.718)"/><rect class="c" width="21.042" height="2.104" transform="translate(7.129 16.979)"/><rect class="b" width="21.042" transform="translate(7.129 25.396)"/><rect class="c" width="21.042" height="2.102" transform="translate(7.129 34.865)"/><rect class="c" width="21.042" height="2.104" transform="translate(7.129 28.552)"/><rect class="c" width="21.042" height="2.104" transform="translate(7.128 23.292)"/></g></g></svg>