<svg xmlns="http://www.w3.org/2000/svg" width="18" height="14" viewBox="0 0 18 14"><defs><style>.a{fill:rgba(46,46,46,0.9);fill-rule:evenodd;}</style></defs><path class="a" d="M12.147,15.55a.943.943,0,0,0,1.395,0L24.7,3.653a1.1,1.1,0,0,0,0-1.487.943.943,0,0,0-1.395,0l-11.157,11.9A1.1,1.1,0,0,0,12.147,15.55Z" transform="translate(-6.987 -1.858)"/><path class="a" d="M1.016,19.516a1.091,1.091,0,0,1,1.543,0l4.629,4.628a1.091,1.091,0,1,1-1.543,1.543L1.016,21.059A1.091,1.091,0,0,1,1.016,19.516Z" transform="translate(-0.697 -12.155)"/></svg>