<svg xmlns="http://www.w3.org/2000/svg" width="33" height="33" viewBox="0 0 33 33"><defs><style>.a{fill:#0650bb;}.b{fill:#fff;fill-rule:evenodd;}</style></defs><g transform="translate(-211 -395)"><circle class="a" cx="16.5" cy="16.5" r="16.5" transform="translate(211 395)"/><g transform="translate(218.727 400.676)"><path class="b" d="M12.637,10a4.637,4.637,0,1,0,4.637,4.637A4.636,4.636,0,0,0,12.637,10Zm2.64,6.9A3.477,3.477,0,1,1,14.9,12,3.476,3.476,0,0,1,15.277,16.9Z" transform="translate(-3.363 -2.943)"/><path class="b" d="M14.318,14A2.319,2.319,0,0,0,12,16.319h0a.29.29,0,0,0,.58,0h0a1.739,1.739,0,0,1,1.739-1.738.29.29,0,0,0,0-.58Z" transform="translate(-5.045 -4.625)"/><path class="b" d="M17.093,6.5l-2.512-.419-.8-1.99A1.732,1.732,0,0,0,12.171,3h-5.8A1.733,1.733,0,0,0,4.761,4.093l-.8,1.99L1.454,6.5A1.732,1.732,0,0,0,0,8.216V16.91a1.741,1.741,0,0,0,1.739,1.739H16.808a1.741,1.741,0,0,0,1.739-1.739V8.216A1.732,1.732,0,0,0,17.093,6.5Zm.294,10.408a.579.579,0,0,1-.58.58H1.739a.579.579,0,0,1-.58-.58V8.216a.579.579,0,0,1,.485-.571L4.8,7.119l1.038-2.6a.581.581,0,0,1,.538-.365h5.8a.58.58,0,0,1,.538.365l1.038,2.6,3.156.526a.579.579,0,0,1,.485.571Z"/></g></g></svg>