<svg id="category-ico" xmlns="http://www.w3.org/2000/svg" width="17.211" height="17.211" viewBox="0 0 17.211 17.211">
  <path id="Path_479" data-name="Path 479" d="M6.076,13.3a1.076,1.076,0,1,0,1.076,1.076A1.074,1.074,0,0,0,6.076,13.3Zm0-4.3a1.076,1.076,0,1,0,1.076,1.076A1.074,1.074,0,0,0,6.076,9Zm0,8.724a.957.957,0,1,0,.957.957A.957.957,0,0,0,6.076,17.724ZM8.227,19.4h10.04V17.964H8.227Zm0-4.3h10.04V13.661H8.227Zm0-5.737v1.434h10.04V9.359Z" transform="translate(-3.207 -5.773)"/>
  <path id="Path_480" data-name="Path 480" d="M0,0H17.211V17.211H0Z" fill="none"/>
</svg>
