<svg xmlns="http://www.w3.org/2000/svg" width="11.863" height="15.192" viewBox="0 0 11.863 15.192">
  <g id="certification" transform="translate(0.25 0.25)">
    <path id="Path_481" data-name="Path 481" d="M69.363,2.4,66.967,0h-7.13V7.813a2.007,2.007,0,0,0-1.148,3.513v3.366h.473l.847-.847.847.847h.473V13.2h8.035ZM67.068.588,68.775,2.3H67.068ZM58.344,9.814a1.664,1.664,0,1,1,1.664,1.664A1.666,1.666,0,0,1,58.344,9.814Zm1.664,3.544-.976.976V11.569a2,2,0,0,0,1.951,0v2.765Zm1.32-.5v-1.53a2.007,2.007,0,0,0-1.148-3.513V.344h6.542v2.3h2.3V12.855Z" transform="translate(-58)" stroke="#000" stroke-width="0.5"/>
    <path id="Path_482" data-name="Path 482" d="M176,64h2.755v.344H176Z" transform="translate(-172.614 -62.164)"/>
    <path id="Path_483" data-name="Path 483" d="M176,96h1.836v.344H176Z" transform="translate(-172.614 -93.245)"/>
    <path id="Path_484" data-name="Path 484" d="M176,144h6.428v.344H176Z" transform="translate(-172.614 -139.868)"/>
    <path id="Path_485" data-name="Path 485" d="M176,176h6.428v.344H176Z" transform="translate(-172.614 -170.95)"/>
    <path id="Path_486" data-name="Path 486" d="M176,240h6.428v.344H176Z" transform="translate(-172.614 -233.113)"/>
    <path id="Path_487" data-name="Path 487" d="M208,272h4.591v.344H208Z" transform="translate(-203.695 -264.195)"/>
    <path id="Path_488" data-name="Path 488" d="M176,208h6.428v.344H176Z" transform="translate(-172.614 -202.031)"/>
    <path id="Path_489" data-name="Path 489" d="M304,320h2.755v.344H304Z" transform="translate(-296.941 -310.818)"/>
    <path id="Path_490" data-name="Path 490" d="M336,352h1.836v.344H336Z" transform="translate(-328.022 -341.899)"/>
    <path id="Path_491" data-name="Path 491" d="M91.09,306.181A1.09,1.09,0,1,0,90,305.09,1.092,1.092,0,0,0,91.09,306.181Zm0-1.836a.746.746,0,1,1-.746.746A.747.747,0,0,1,91.09,304.344Z" transform="translate(-89.082 -295.277)"/>
  </g>
</svg>
