<svg xmlns="http://www.w3.org/2000/svg" width="20.25" height="27.614" viewBox="0 0 20.25 27.614">
  <g id="csv" transform="translate(0)">
    <g id="csv-2" data-name="csv" transform="translate(-37.218 -9.661)" opacity="0.76">
      <g id="Group_257" data-name="Group 257" transform="translate(37.218 9.661)">
        <path id="Path_465" data-name="Path 465" d="M50.465,109.21a.62.62,0,0,0,.581-.651v-3.908a.62.62,0,0,0-.581-.651H40.581a.62.62,0,0,0-.581.651v3.908a.62.62,0,0,0,.581.651Zm-3.279-3.9.579,1.9.561-1.9h.49L48,107.872H47.5l-.818-2.565ZM46,106.972a.375.375,0,0,0-.166-.111q-.081-.032-.37-.112a1.2,1.2,0,0,1-.521-.254.7.7,0,0,1-.211-.516.717.717,0,0,1,.1-.366.64.64,0,0,1,.286-.26,1.036,1.036,0,0,1,.451-.09.9.9,0,0,1,.649.212.788.788,0,0,1,.229.565l-.462.023a.461.461,0,0,0-.127-.284.429.429,0,0,0-.293-.087.486.486,0,0,0-.315.093.194.194,0,0,0-.073.159.206.206,0,0,0,.069.156,1.135,1.135,0,0,0,.425.171,2.079,2.079,0,0,1,.5.185.677.677,0,0,1,.253.261.891.891,0,0,1-.018.821.678.678,0,0,1-.309.286,1.172,1.172,0,0,1-.5.094.921.921,0,0,1-.667-.225,1.029,1.029,0,0,1-.278-.655l.45-.049a.645.645,0,0,0,.165.373.463.463,0,0,0,.335.119.475.475,0,0,0,.336-.106.328.328,0,0,0,.113-.248A.252.252,0,0,0,46,106.972Zm-3.346-1.354a.96.96,0,0,1,.776-.354.894.894,0,0,1,.682.278,1.05,1.05,0,0,1,.234.472l-.457.122a.488.488,0,0,0-.482-.43.5.5,0,0,0-.413.2,1.092,1.092,0,0,0-.158.663,1.174,1.174,0,0,0,.156.693.486.486,0,0,0,.406.206.435.435,0,0,0,.317-.131.8.8,0,0,0,.19-.413l.448.159a1.154,1.154,0,0,1-.343.624.9.9,0,0,1-.608.2.935.935,0,0,1-.749-.349,1.436,1.436,0,0,1-.294-.954A1.51,1.51,0,0,1,42.658,105.618Z" transform="translate(-40 -91.78)"/>
        <path id="Path_466" data-name="Path 466" d="M65.732,8H49.867A1.856,1.856,0,0,0,48,9.841v8.284h.933V9.841a.928.928,0,0,1,.933-.92H65.732a.928.928,0,0,1,.933.92V29.059a.921.921,0,0,1-.008.112H62.466a1.392,1.392,0,0,0-1.4,1.381v4.135a.96.96,0,0,1-.113.007H49.867a.928.928,0,0,1-.933-.92V27.33H48v6.443a1.856,1.856,0,0,0,1.867,1.841H60.953a1.868,1.868,0,0,0,1.32-.539l4.78-4.714a1.817,1.817,0,0,0,.547-1.3V9.841A1.856,1.856,0,0,0,65.732,8Z" transform="translate(-47.349 -8)"/>
      </g>
    </g>
  </g>
</svg>
