<svg width="15" height="15" viewBox="0 0 15 15" fill="none" xmlns="http://www.w3.org/2000/svg">
<path d="M14.7077 3.45721C14.8831 3.39276 15.0002 3.22109 15 3.02867C14.9998 2.83626 14.8823 2.66489 14.7068 2.60087L7.64622 0.0258918C7.55162 -0.0086306 7.44841 -0.0086306 7.35381 0.0258918L0.293262 2.60087C0.117715 2.66486 0.000234726 2.83626 3.51182e-07 3.02867C-0.000234024 3.22109 0.116866 3.39276 0.292266 3.45721L3.08921 4.485V7.44809C3.08921 7.93712 3.58277 8.35069 4.55619 8.67726C5.40466 8.96192 6.45015 9.1187 7.50003 9.1187C8.54991 9.1187 9.59537 8.96192 10.4439 8.67726C11.4173 8.35069 11.9108 7.93715 11.9108 7.44809V4.485L13.0656 4.06065V8.16651C12.5521 8.35421 12.1831 8.86081 12.1831 9.45511C12.1831 10.0494 12.5521 10.556 13.0656 10.7437V14.5458C13.0656 14.7966 13.2624 15 13.5051 15C13.7478 15 13.9446 14.7966 13.9446 14.5458V10.7437C14.4581 10.556 14.8271 10.0494 14.8271 9.45511C14.8271 8.86084 14.4581 8.35421 13.9446 8.16651V3.73765L14.7077 3.45721ZM13.5051 9.91311C13.2607 9.91311 13.062 9.70764 13.062 9.45508C13.062 9.20252 13.2607 8.99705 13.5051 8.99705C13.7494 8.99705 13.9482 9.20252 13.9482 9.45508C13.9482 9.70764 13.7494 9.91311 13.5051 9.91311ZM7.5 0.93592L13.2442 3.03085L7.5 5.14166L1.75579 3.03082L7.5 0.93592ZM11.0319 7.37962C10.9477 7.46737 10.6462 7.67757 9.96562 7.87825C9.23962 8.09232 8.36397 8.21021 7.5 8.21021C6.63603 8.21021 5.76041 8.09232 5.03438 7.87825C4.35384 7.67757 4.05231 7.46741 3.96809 7.37962V4.80797L7.35278 6.05174C7.40039 6.06925 7.4502 6.078 7.49997 6.078C7.54978 6.078 7.59955 6.06925 7.64716 6.05174L11.0319 4.80797L11.0319 7.37962Z" fill="black"/>
</svg>
