<svg id="jobs-ico" xmlns="http://www.w3.org/2000/svg" width="18" height="16.003" viewBox="0 0 18 16.003">
  <path id="iconfinder_vector_65_05_473784" d="M18,14.757v3.116a2.7,2.7,0,0,1-.766,1.328,2.927,2.927,0,0,1-2.039.809H10.348v-.949a.731.731,0,0,0-.729-.729H8.381a.731.731,0,0,0-.729.729v.949H2.805A2.927,2.927,0,0,1,.766,19.2,2.7,2.7,0,0,1,0,17.873V14.757a1.225,1.225,0,0,1,1.222-1.222H16.779A1.225,1.225,0,0,1,18,14.757Zm-8.381,6.93a.119.119,0,0,0,.118-.118V19.061a.119.119,0,0,0-.118-.118H8.381a.12.12,0,0,0-.118.118V21.57a.119.119,0,0,0,.118.118Zm8.038-2.046a3.535,3.535,0,0,1-2.462.98H10.348v.949a.731.731,0,0,1-.729.729H8.381a.731.731,0,0,1-.729-.729v-.949H2.805a3.535,3.535,0,0,1-2.462-.98A3.466,3.466,0,0,1,0,19.26v6.614A1.225,1.225,0,0,0,1.222,27.1H16.779A1.225,1.225,0,0,0,18,25.874V19.26A3.456,3.456,0,0,1,17.657,19.641Zm-5.84-8.191a1.218,1.218,0,0,0-.864-.358H7.048a1.222,1.222,0,0,0-1.222,1.222v.611H6.864v-.611a.184.184,0,0,1,.184-.184h3.905a.184.184,0,0,1,.183.184v.611h1.038v-.611A1.219,1.219,0,0,0,11.817,11.45Z" transform="translate(0 -11.092)" fill="#fff"/>
</svg>
