<svg id="location" xmlns="http://www.w3.org/2000/svg" width="9.561" height="13.785" viewBox="0 0 9.561 13.785">
  <path id="Path_492" data-name="Path 492" d="M12.587,10.915A2.585,2.585,0,1,0,10,8.331,2.588,2.588,0,0,0,12.587,10.915Zm0-4.739a2.154,2.154,0,1,1-2.154,2.154A2.156,2.156,0,0,1,12.587,6.177Z" transform="translate(-7.806 -3.271)" fill="#333" fill-rule="evenodd"/>
  <path id="Path_493" data-name="Path 493" d="M8.78,0A4.973,4.973,0,0,0,4,5.17c0,3.015,2.39,6.1,4.133,8.268a.957.957,0,0,0,.632.347H8.8a.958.958,0,0,0,.632-.347c1.744-2.168,4.134-5.253,4.134-8.268A4.974,4.974,0,0,0,8.78,0Zm.047,12.873a.487.487,0,0,1-.054.042.418.418,0,0,0-.051-.057C7.262,11.041,4.8,7.975,4.8,5.17A4.161,4.161,0,0,1,8.78.862,4.161,4.161,0,0,1,12.764,5.17C12.764,7.975,10.3,11.041,8.827,12.873Z" transform="translate(-4)" fill="#333" fill-rule="evenodd"/>
</svg>
