<svg id="posted" xmlns="http://www.w3.org/2000/svg" width="55" height="55" viewBox="0 0 55 55">
  <g id="iconfinder_user_male_172625">
    <rect id="Rectangle_125" data-name="Rectangle 125" width="55" height="55" fill="none"/>
    <g id="Group_321" data-name="Group 321">
      <g id="portable-document-format" transform="translate(6.265 4.83)">
        <path id="Path_538" data-name="Path 538" d="M7.445,12.563a8.851,8.851,0,0,1,8.841-8.841h17A5.108,5.108,0,0,0,28.384,0H6.98A5.123,5.123,0,0,0,1.861,5.118V33.968A5.123,5.123,0,0,0,6.98,39.086h.465Z" fill="#93b81e"/>
        <path id="Path_539" data-name="Path 539" d="M37.69,7.445h-21.4a5.123,5.123,0,0,0-5.118,5.118V39.551a5.123,5.123,0,0,0,5.118,5.118h21.4a5.123,5.123,0,0,0,5.118-5.118V12.563A5.123,5.123,0,0,0,37.69,7.445ZM33.968,39.086H20.008a1.4,1.4,0,1,1,0-2.792H33.968a1.4,1.4,0,0,1,0,2.792Zm0-7.445H20.008a1.4,1.4,0,1,1,0-2.792H33.968a1.4,1.4,0,1,1,0,2.792Zm0-6.514H20.008a1.4,1.4,0,0,1,0-2.792H33.968a1.4,1.4,0,0,1,0,2.792Zm0-7.445H20.008a1.4,1.4,0,1,1,0-2.792H33.968a1.4,1.4,0,1,1,0,2.792Z" fill="#8aa1fb"/>
      </g>
    </g>
  </g>
</svg>
