<svg id="uploaded-profile" xmlns="http://www.w3.org/2000/svg" width="55" height="55" viewBox="0 0 55 55">
  <g id="profile-upload">
    <g id="iconfinder_user_male_172625">
      <rect id="Rectangle_125" data-name="Rectangle 125" width="55" height="55" fill="none"/>
      <path id="Path_261" data-name="Path 261" d="M33.326,35.342a45.468,45.468,0,0,1-.1-4.631c.8-.421,2.242-3.108,2.485-5.377.631-.052,1.627-.668,1.918-3.1a2.27,2.27,0,0,0-.848-2.272c1.027-3.09,3.161-12.649-3.947-13.637-.731-1.285-2.6-1.935-5.039-1.935-9.739.179-10.914,7.355-8.779,15.572a2.275,2.275,0,0,0-.848,2.272c.293,2.432,1.287,3.048,1.918,3.1.242,2.268,1.738,4.956,2.543,5.377a45.48,45.48,0,0,1-.1,4.631C20.6,40.523,7.6,39.069,7,49.061H48.8C48.2,39.069,35.254,40.523,33.326,35.342Z" transform="translate(0.7 0.439)" fill="#8aa1fb"/>
    </g>
  </g>
  <g id="iconfinder_arrow-up_2561334" transform="translate(35 15)">
    <line id="Line_2" data-name="Line 2" y1="16" transform="translate(12 4)" fill="none" stroke="#93b81e" stroke-linecap="round" stroke-linejoin="round" stroke-width="2"/>
    <path id="Path_413" data-name="Path 413" d="M6,10l6-6,6,6" fill="none" stroke="#93b81e" stroke-linecap="round" stroke-linejoin="round" stroke-width="2"/>
  </g>
</svg>
