<svg xmlns="http://www.w3.org/2000/svg" width="12.164" height="10.177" viewBox="0 0 12.164 10.177">
  <g id="users" transform="translate(0.5 0.608)">
    <path id="Path_499" data-name="Path 499" d="M9.119,18.045V17.03A2.03,2.03,0,0,0,7.089,15H3.03A2.03,2.03,0,0,0,1,17.03v1.015" transform="translate(-1 -8.977)" fill="none" stroke="#000" stroke-linecap="round" stroke-linejoin="round" stroke-width="1"/>
    <path id="Path_502" data-name="Path 502" d="M2.144,0A1.99,1.99,0,0,1,4.287,1.786,1.99,1.99,0,0,1,2.144,3.573,1.99,1.99,0,0,1,0,1.786,1.99,1.99,0,0,1,2.144,0Z" transform="translate(2.01 0.214)" fill="none" stroke="#000" stroke-linecap="round" stroke-width="1"/>
    <path id="Path_500" data-name="Path 500" d="M21.522,18.109V17.094A2.03,2.03,0,0,0,20,15.13" transform="translate(-10.358 -9.041)" fill="none" stroke="#000" stroke-linecap="round" stroke-linejoin="round" stroke-width="1"/>
    <path id="Path_501" data-name="Path 501" d="M16,3.13a2.03,2.03,0,0,1,0,3.933" transform="translate(-8.388 -3.13)" fill="none" stroke="#000" stroke-linecap="round" stroke-linejoin="round" stroke-width="1"/>
  </g>
</svg>
